HIERARCHY
ROOT ROOT
{
	OFFSET 0.000000 56.020000 -5.659234
	CHANNELS 6 Xposition Yposition Zposition Xrotation Yrotation Zrotation 
	JOINT C_spine0001_bind_JNT
	{
		OFFSET 0.000000 1.618999 0.000000
		CHANNELS 3 Xrotation Yrotation Zrotation
		JOINT C_spine0002_bind_JNT
		{
			OFFSET 0.000000 4.942001 0.000001
			CHANNELS 3 Xrotation Yrotation Zrotation
			JOINT C_spine0003_bind_JNT
			{
				OFFSET 0.000000 4.942001 -0.000000
				CHANNELS 3 Xrotation Yrotation Zrotation
				JOINT C_neck0001_bind_JNT
				{
					OFFSET 0.000000 17.026009 -0.000000
					CHANNELS 3 Xrotation Yrotation Zrotation
					JOINT C_neck0002_bind_JNT
					{
						OFFSET 0.000000 3.249985 0.000000
						CHANNELS 3 Xrotation Yrotation Zrotation
						JOINT C_head_bind_JNT
						{
							OFFSET 0.000000 5.278008 0.000000
							CHANNELS 3 Xrotation Yrotation Zrotation
							End Site
							{
								OFFSET 0.000000 0.000000 0.000000
							}
						}
					}
				}
				JOINT L_clavicle_bind_JNT
				{
					OFFSET 4.590000 12.067001 0.834000
					CHANNELS 3 Xrotation Yrotation Zrotation
					JOINT L_armUpper0001_bind_JNT
					{
						OFFSET 7.812635 0.512001 -3.452945
						CHANNELS 3 Xrotation Yrotation Zrotation
						JOINT L_armLower0001_bind_JNT
						{
							OFFSET 15.265892 -6.552116 -0.058157
							CHANNELS 3 Xrotation Yrotation Zrotation
							JOINT L_hand0001_bind_JNT
							{
								OFFSET 14.747667 -6.369995 5.049225
								CHANNELS 3 Xrotation Yrotation Zrotation
								End Site
								{
									OFFSET 0.000000 0.000000 0.000000
								}
							}
						}
					}
				}
				JOINT R_clavicle_bind_JNT
				{
					OFFSET -4.590000 12.067001 0.834000
					CHANNELS 3 Xrotation Yrotation Zrotation
					JOINT R_armUpper0001_bind_JNT
					{
						OFFSET -7.812635 0.512001 -3.452945
						CHANNELS 3 Xrotation Yrotation Zrotation
						JOINT R_armLower0001_bind_JNT
						{
							OFFSET -15.265890 -6.552124 -0.058160
							CHANNELS 3 Xrotation Yrotation Zrotation
							JOINT R_hand0001_bind_JNT
							{
								OFFSET -14.746784 -6.369629 5.048937
								CHANNELS 3 Xrotation Yrotation Zrotation
								End Site
								{
									OFFSET 0.000000 0.000000 0.000000
								}
							}
						}
					}
				}
			}
		}
	}
	JOINT C_pelvis0001_bind_JNT
	{
		OFFSET -0.000000 0.000000 0.000000
		CHANNELS 3 Xrotation Yrotation Zrotation
		JOINT L_legUpper0001_bind_JNT
		{
			OFFSET 6.599999 -6.027000 0.539000
			CHANNELS 3 Xrotation Yrotation Zrotation
			JOINT L_legLower0001_bind_JNT
			{
				OFFSET -0.140713 -19.187443 0.040261
				CHANNELS 3 Xrotation Yrotation Zrotation
				JOINT L_foot0001_bind_JNT
				{
					OFFSET -0.132215 -18.028637 -1.138370
					CHANNELS 3 Xrotation Yrotation Zrotation
					JOINT L_foot0002_bind_JNT
					{
						OFFSET 0.007014 -4.693133 9.886524
						CHANNELS 3 Xrotation Yrotation Zrotation
						End Site
						{
							OFFSET 0.000000 0.000000 0.000000
						}
					}
				}
			}
		}
		JOINT R_legUpper0001_bind_JNT
		{
			OFFSET -6.599999 -6.027000 0.539000
			CHANNELS 3 Xrotation Yrotation Zrotation
			JOINT R_legLower0001_bind_JNT
			{
				OFFSET 0.140710 -19.187164 0.040550
				CHANNELS 3 Xrotation Yrotation Zrotation
				JOINT R_foot0001_bind_JNT
				{
					OFFSET 0.132215 -18.028633 -1.138362
					CHANNELS 3 Xrotation Yrotation Zrotation
					JOINT R_foot0002_bind_JNT
					{
						OFFSET -0.007014 -4.693128 9.886505
						CHANNELS 3 Xrotation Yrotation Zrotation
						End Site
						{
							OFFSET 0.000000 0.000000 0.000000
						}
					}
				}
			}
		}
	}
}
MOTION
Frames: 14
Frame Time: 0.033333
0.000000 48.687065 0.000000 0.036977 -3.218942 -0.011566 4.757885 3.723006 -1.490496 -5.256809 -0.650541 -0.429649 2.242905 -0.174257 -2.110645 12.954292 0.922554 -1.170025 0.039471 0.227410 -0.092506 -13.721139 2.235420 -0.968496 16.925386 5.702510 23.299532 -28.854218 -15.317221 -80.098854 2.695448 12.137085 -4.037448 -4.676760 -23.220606 -10.595941 17.502018 -2.236375 -20.986473 -18.123709 3.686647 83.748070 7.043702 -15.054709 2.226276 -8.726987 21.274946 13.738104 8.201336 4.638223 -0.979731 -1.270012 2.457750 -4.591531 2.167810 3.749966 -1.311984 -8.812996 -1.762579 2.589746 -1.760942 -0.043393 1.124455 -20.956921 -4.751894 -3.697737 22.312674 0.600872 0.686312 -6.846017 5.926183 1.600239 -1.703861 1.261413 0.009305 
-0.100512 48.695499 0.649842 0.023720 -3.139570 -0.028118 5.125803 3.154375 -1.281468 -5.792339 -1.078332 -0.403010 2.039674 -0.339805 -2.287760 12.780116 0.804672 -1.108196 -0.051578 0.306060 -0.130466 -13.393560 1.780990 -0.771931 16.783791 6.493707 23.632282 -29.731285 -16.677404 -80.080635 3.455854 12.049852 -5.059140 -5.503490 -23.976763 -9.790625 17.996094 -2.543428 -20.443552 -18.345238 3.286324 83.021843 7.714235 -16.172771 2.135367 -9.226481 22.720766 13.851830 8.840712 4.521470 -1.131034 -1.140599 2.605622 -4.185209 2.166155 3.874116 -1.003028 -8.944974 -2.327441 2.062227 -1.644850 -0.166700 1.083950 -22.716866 -5.069058 -3.659642 22.745565 0.793361 1.425650 -7.511196 5.473995 0.401988 -1.771604 1.282519 0.342811 
-0.094804 48.651371 1.191169 0.018235 -3.498682 -0.026660 5.458957 2.861545 -1.500962 -5.610419 -1.068835 -0.142843 2.005275 -0.362496 -2.341736 12.462017 1.003076 -1.030422 -0.005177 0.170976 -0.009074 -13.276193 2.194226 -0.965327 15.952736 6.736627 23.960266 -29.493786 -16.994511 -79.498230 3.546988 11.417024 -5.025981 -6.147838 -24.222000 -8.929448 17.574930 -2.616154 -20.478703 -17.396605 2.652424 83.120773 7.559011 -16.897158 1.557050 -9.964567 23.717136 12.590486 9.275849 4.440557 -1.307077 -0.774641 2.534645 -4.390129 1.889627 3.939974 -0.818027 -9.649868 -2.564943 1.951277 -1.510574 -0.369737 1.382981 -23.371944 -4.885985 -3.597682 20.834518 0.598651 1.610573 -7.187624 5.798688 1.201152 -0.615118 1.189350 0.245312 
-0.099737 48.633190 1.863351 0.030925 -3.496116 -0.032353 5.845622 2.335713 -1.322531 -5.661242 -1.354345 -0.153599 1.961409 -0.536051 -2.032933 12.008863 1.278360 -0.937526 0.151190 0.122003 -0.280358 -13.601595 2.780470 -0.855773 15.610781 7.027331 23.809814 -29.590250 -17.256321 -78.871353 3.260656 10.549971 -5.143053 -7.051769 -24.859192 -8.376591 17.300331 -2.282353 -20.542322 -16.060528 1.814040 82.596199 7.541253 -16.916243 1.098298 -10.643357 24.288666 11.799250 9.186213 4.396319 -1.499954 0.167852 2.331880 -4.071938 1.692412 3.939078 -0.761293 -9.844403 -2.355274 1.770978 -1.935491 -0.090600 1.384589 -24.110430 -5.144227 -3.476551 19.605227 0.644299 1.597579 -7.113250 6.122560 1.365690 -0.181372 1.196937 0.495419 
-0.187803 48.613930 2.732204 0.026512 -3.144699 -0.024955 5.878178 1.384865 -1.050360 -5.604548 -1.416070 -0.020836 1.914195 -0.506023 -1.919088 11.844468 1.448514 -1.210252 -0.025388 0.200073 -0.095289 -14.063525 3.342011 -1.158694 15.678246 6.890086 23.891886 -29.841005 -17.387545 -78.413147 2.350668 10.208650 -5.309873 -7.469058 -25.287563 -7.370092 17.203270 -2.388593 -20.488890 -14.855200 1.164961 82.243500 7.108987 -17.408155 0.742948 -11.300797 25.298529 11.349046 9.509535 3.692019 -1.386529 1.134017 2.168071 -4.033365 1.251958 4.369311 -0.790919 -10.167837 -1.885916 1.574955 -2.316391 -0.413949 1.270628 -24.710825 -5.467580 -3.324622 17.976288 1.105608 1.800198 -6.400132 6.527349 1.333117 -0.083958 1.216164 0.277928 
-0.298934 48.500343 3.644805 0.027630 -3.229254 -0.025511 6.048694 0.903018 -0.918453 -5.606728 -1.527817 0.067052 1.862120 -0.606745 -1.720434 11.691073 1.637919 -1.137588 0.061313 0.059145 -0.218416 -14.634051 3.726241 -1.036230 15.540940 6.899063 23.811653 -29.485897 -17.287165 -77.850243 1.363937 9.577572 -5.317955 -8.033432 -25.921101 -7.190027 17.231438 -2.351689 -20.314266 -13.832300 0.436658 81.694366 6.889888 -17.411451 0.508164 -11.790520 25.890844 11.674727 9.626401 3.540266 -1.588635 2.248627 1.973360 -3.805399 0.986136 4.787434 -0.794122 -10.488522 -1.708257 1.459399 -2.887779 -0.125010 1.281885 -24.968023 -5.864803 -2.718638 16.650099 1.122902 1.674737 -5.866401 6.955209 1.502292 0.187910 1.425662 0.400006 
-0.434234 48.426636 4.668504 0.025309 -3.245892 -0.028233 6.171547 0.501152 -0.645694 -5.690254 -1.690103 0.138681 1.887032 -0.745761 -1.500429 11.648030 1.691023 -1.331235 -0.023918 0.194966 -0.234433 -15.025160 4.008750 -1.176081 15.594241 6.635574 23.552750 -28.679228 -17.135313 -77.271233 -0.404627 8.827779 -5.408666 -8.541793 -26.878389 -6.322606 17.026655 -2.422138 -19.980110 -12.494064 -0.210179 81.201111 6.042549 -17.005241 0.263669 -12.106762 26.427258 11.470993 9.880684 3.466318 -1.873927 3.074444 1.867374 -3.560933 0.936432 5.107355 -0.726834 -10.551942 -1.476379 1.288751 -3.722414 -0.098926 1.318588 -25.159824 -6.129499 -1.788302 16.343391 1.137751 1.545861 -5.210464 7.506215 1.361586 0.262149 1.175943 0.350705 
-0.591658 48.378479 5.639489 0.025500 -3.340033 -0.029807 6.129986 0.192701 -0.513903 -5.578915 -1.895921 0.361118 1.806755 -1.041417 -1.403888 11.493329 1.965772 -1.405226 0.078280 0.050557 -0.203761 -15.163328 4.371074 -1.136033 15.592269 6.713898 23.248356 -28.107546 -16.823200 -76.968964 -1.649217 8.628925 -5.464256 -9.408505 -28.000061 -5.806766 17.059128 -2.235500 -19.605999 -11.494321 -1.216065 80.611153 4.982467 -16.794569 0.379230 -12.246928 27.158911 11.235018 9.870658 3.419961 -2.187000 4.292123 2.054358 -3.022937 1.381635 5.113163 -0.938908 -10.791289 -1.009031 1.151218 -4.946887 -0.054347 1.172741 -25.424572 -5.998292 -1.088786 16.352684 1.161497 1.531790 -4.244217 7.507565 0.819054 0.791191 1.227357 0.194980 
-0.961361 48.232563 6.850038 0.020593 -3.538851 -0.028433 6.218960 -0.075367 -0.380796 -5.617347 -2.132941 0.356630 1.662280 -1.252824 -1.136166 11.361403 2.285658 -1.522802 0.044212 0.074500 -0.297257 -15.352387 4.847153 -1.307577 15.837976 6.711235 23.157125 -27.151947 -16.257448 -76.607803 -3.290445 7.971826 -5.580338 -10.251039 -29.044050 -5.064663 16.953630 -2.571931 -19.506899 -10.478343 -1.441632 80.353828 2.871975 -16.259447 1.088869 -12.545586 27.752806 11.080698 9.911255 3.667605 -2.380540 4.718305 1.867602 -2.590530 2.747672 5.263955 -1.034113 -11.159564 -0.695036 0.802653 -6.208474 0.118663 1.180233 -25.159790 -5.970376 0.143703 16.494659 1.324997 1.012044 -3.648286 7.133740 0.091548 0.468740 1.008933 0.205394 
-1.236139 48.081654 8.164042 0.030607 -3.599134 -0.035569 6.175295 -0.196223 -0.214122 -5.676892 -2.396572 0.511409 1.452447 -1.503355 -0.839281 11.360898 2.568436 -1.643432 0.068481 -0.103414 -0.333246 -15.389692 5.401208 -1.234264 16.067421 6.800197 23.067419 -26.201582 -15.756061 -76.562401 -4.668121 7.500448 -6.182610 -10.882257 -30.126053 -3.962623 16.860729 -2.662207 -19.385557 -9.499809 -2.049925 79.682358 0.322313 -16.207212 2.046788 -13.122710 28.127195 11.308110 9.857540 3.931428 -2.515443 5.072076 1.914316 -2.061468 4.957067 5.215832 -1.128348 -11.211957 -0.531588 0.148762 -8.743443 0.229661 1.222871 -24.201679 -5.201760 0.740540 16.994513 1.527846 0.973915 -3.982503 6.059492 -0.342005 0.004839 0.844259 -0.042777 
-1.567178 48.047287 9.332395 0.016795 -3.626100 -0.033607 5.776784 -0.523063 0.000088 -5.734049 -2.584010 0.593256 1.347569 -1.848877 -0.599541 11.224076 2.696551 -1.655445 -0.023634 -0.037676 -0.513615 -15.361866 5.821578 -1.170690 16.434498 6.733887 22.879856 -24.995270 -14.759123 -76.806229 -6.158050 6.895134 -5.873138 -11.507207 -30.905777 -3.494867 16.519199 -2.502265 -19.299873 -8.744943 -2.272789 79.135513 -2.170022 -16.646191 3.486914 -14.411039 27.944815 12.451704 9.572691 3.999134 -2.506573 4.628308 2.556325 -0.995234 9.196181 4.572893 -1.284578 -10.445495 -0.214849 -1.188287 -12.957249 0.161981 1.511397 -22.669842 -4.188016 1.442689 17.145576 1.209090 0.826090 -4.935767 4.989727 -0.577652 -0.293537 0.910020 0.050649 
-2.005645 48.065151 10.465813 0.022683 -3.852505 -0.032871 5.463887 -0.590688 0.222152 -5.882330 -2.766297 0.694262 1.220220 -2.007658 -0.461933 11.238257 2.954285 -1.975067 0.058576 -0.226705 -0.390181 -14.976683 6.386297 -1.473068 16.866705 6.794040 22.815710 -23.792486 -14.078426 -77.155418 -7.635588 6.513742 -6.073041 -12.153846 -31.894543 -2.922276 16.317421 -2.368174 -19.149988 -8.208026 -2.417596 78.848228 -4.881535 -17.127304 4.740421 -16.014793 27.519484 13.947636 9.571934 4.081409 -2.549602 2.710136 3.241574 0.162218 14.950228 4.192798 -1.365479 -7.698277 -0.659545 -2.213483 -20.108036 -0.044643 1.766737 -21.172014 -3.447724 2.251794 16.852966 0.827397 1.014911 -6.063328 4.530097 -0.793473 -0.143568 0.728886 -0.218184 
-2.419005 48.221031 11.611051 0.026005 -4.089516 -0.033305 5.296959 -0.377918 0.322026 -6.028225 -2.771909 0.616416 1.065771 -2.076014 -0.286562 11.395576 2.899345 -2.076585 0.059087 -0.133928 -0.373460 -14.724734 6.140978 -1.765345 17.062206 6.679451 22.722124 -22.444870 -13.595170 -77.453300 -9.198143 6.346508 -5.970317 -12.871840 -32.577312 -2.956096 16.110390 -2.192071 -18.990683 -7.860767 -2.121516 78.746178 -6.823336 -17.306265 6.378349 -17.232903 26.723982 15.203567 9.263892 4.420784 -2.570101 -0.551863 4.109771 1.747798 23.417013 3.843594 -1.754598 -3.944641 -1.619065 -3.440361 -28.322147 -0.080877 2.077089 -18.539631 -2.757440 2.614767 15.133467 -0.007117 1.122474 -5.987898 4.757412 -0.782879 -0.925564 0.913589 -0.370847 
-2.837662 48.272499 12.539469 0.019600 -4.000811 -0.032395 5.051587 -0.231850 0.350515 -6.080851 -2.566046 0.554262 0.931798 -2.093149 -0.274925 11.425776 2.827684 -2.128672 -0.052636 -0.283909 -0.497121 -14.150591 6.164947 -1.727496 17.175821 6.253703 23.430042 -21.340811 -12.907234 -78.605774 -9.942950 6.126131 -5.332109 -13.976126 -32.598850 -3.393328 15.995513 -2.269465 -19.311317 -8.385624 -1.269448 79.227707 -7.708856 -17.137358 7.506830 -18.156940 24.817139 16.086094 9.349653 4.289760 -2.786147 -4.774434 4.591129 3.354966 31.581223 3.898918 -1.899226 1.507727 -2.397555 -3.971747 -34.475140 -0.325304 1.939943 -17.137815 -2.189787 3.227744 14.236773 -0.305285 1.452011 -6.221364 5.018065 -1.208622 -1.135063 0.735370 -0.623172 
